<?xml version="1.0" encoding="UTF-8"?>
<svg id="Layer_1" xmlns="http://www.w3.org/2000/svg" xmlns:xlink="http://www.w3.org/1999/xlink" version="1.1" viewBox="0 0 177.43 28.14">
  <!-- Generator: Adobe Illustrator 30.0.0, SVG Export Plug-In . SVG Version: 2.1.1 Build 123)  -->
  <defs>
    <style>
      .st0 {
        fill: #6e6f72;
      }

      .st1 {
        fill: url(#linear-gradient2);
      }

      .st2 {
        fill: url(#linear-gradient1);
      }

      .st3 {
        fill: url(#linear-gradient3);
      }

      .st4 {
        fill: url(#linear-gradient4);
      }

      .st5 {
        fill: url(#linear-gradient);
      }

      .st6 {
        fill: #d87d5d;
      }
    </style>
    <linearGradient id="linear-gradient" x1="43.62" y1="23.39" x2="3.74" y2="-6.51" gradientUnits="userSpaceOnUse">
      <stop offset="0" stop-color="#fccfb8"/>
      <stop offset=".37" stop-color="#d87d5d"/>
      <stop offset="1" stop-color="#914c39"/>
    </linearGradient>
    <linearGradient id="linear-gradient1" x1="34.21" y1="35.93" x2="-5.66" y2="6.03" xlink:href="#linear-gradient"/>
    <linearGradient id="linear-gradient2" x1="39.46" y1="28.93" x2="-.41" y2="-.98" xlink:href="#linear-gradient"/>
    <linearGradient id="linear-gradient3" x1="34.37" y1="35.72" x2="-5.5" y2="5.81" xlink:href="#linear-gradient"/>
    <linearGradient id="linear-gradient4" x1="52.37" y1="11.72" x2="12.5" y2="-18.18" xlink:href="#linear-gradient"/>
  </defs>
  <g>
    <path class="st6" d="M66.35,13.02c.22.86.44,2.05.65,3.6-.04.06-.08.09-.12.09-.05,0-.11-.03-.17-.09-.53-.85-1.03-1.49-1.51-1.94s-.97-.76-1.45-.95-1.32-.28-2.51-.28c-1.12,0-2,.06-2.65.19-.06.08-.09.22-.09.42,0,.05,0,.15-.02.29-.08.61-.11,2.26-.11,4.96,0,.11,0,.27.02.48.58.02.98.03,1.19.03.96,0,1.66-.14,2.09-.43.43-.29.81-.91,1.13-1.86.05-.16.13-.24.23-.24.14,0,.22.11.22.33l-.05.46c-.06.6-.09,1.23-.09,1.87,0,1.04.02,1.98.06,2.81,0,.26-.07.39-.21.39-.1,0-.17-.09-.21-.28-.16-.9-.5-1.55-1.01-1.95-.51-.4-1.63-.6-3.35-.6-.02.56-.03,1.46-.03,2.7,0,1.61.06,2.64.17,3.07s.39.78.83,1.04c.44.26,1.17.38,2.21.38,2.97,0,4.89-1.02,5.76-3.07.11-.25.22-.38.33-.38.12,0,.18.08.18.25,0,.09-.02.19-.06.3-.05.15-.16.69-.33,1.63-.04.2-.18.79-.44,1.79h-4.8c-.69-.01-1.7-.04-3.03-.1-1.33-.06-2.51-.09-3.54-.09-1.03,0-1.56-.02-1.61-.06s-.07-.08-.07-.13c0-.15.13-.23.38-.23.85,0,1.41-.23,1.67-.68.27-.45.4-1.55.4-3.29v-2.35s.02-2.2.02-2.2c0-.44-.02-1.28-.07-2.51-.05-1.23-.1-1.94-.14-2.11-.04-.18-.16-.35-.36-.52-.19-.17-.62-.35-1.29-.52-.2-.05-.3-.14-.3-.25,0-.14.13-.21.4-.21l2.34.13c.82.04,2.85.06,6.08.06,2.12,0,3.21,0,3.25.01Z"/>
    <path class="st6" d="M77.01,28.14h-.68c-.36-1.15-.92-2.73-1.7-4.72l-2.17-5.58c-.67-1.73-1.14-2.8-1.4-3.23s-.52-.72-.77-.87c-.25-.15-.61-.25-1.07-.29-.19-.02-.29-.08-.29-.21,0-.14.1-.22.29-.22h6c.37,0,.56.06.56.19,0,.17-.12.25-.37.25-1.01,0-1.51.43-1.51,1.29,0,.21.05.53.14.99.09.45.25,1,.48,1.66.23.66.71,2,1.46,4.04.74,2.04,1.22,3.29,1.43,3.75l2.45-6.79c.7-1.92,1.05-3.14,1.05-3.63,0-.8-.5-1.25-1.49-1.33-.2-.02-.3-.09-.3-.22,0-.08.04-.14.11-.17.07-.03.28-.04.64-.04h3.83c.34,0,.55,0,.62.03.07.02.11.07.11.17,0,.14-.15.23-.45.28-.57.08-1,.29-1.29.62-.29.33-.56.73-.82,1.19-.26.46-.97,2.3-2.11,5.52-.4,1.13-1.32,3.57-2.75,7.31Z"/>
    <path class="st6" d="M97.64,13.02c.22.86.44,2.05.65,3.6-.04.06-.08.09-.12.09-.05,0-.11-.03-.17-.09-.53-.85-1.03-1.49-1.51-1.94s-.97-.76-1.45-.95-1.32-.28-2.51-.28c-1.12,0-2,.06-2.65.19-.06.08-.09.22-.09.42,0,.05,0,.15-.02.29-.08.61-.11,2.26-.11,4.96,0,.11,0,.27.02.48.58.02.98.03,1.19.03.96,0,1.66-.14,2.09-.43.43-.29.81-.91,1.13-1.86.05-.16.13-.24.23-.24.14,0,.22.11.22.33l-.05.46c-.06.6-.09,1.23-.09,1.87,0,1.04.02,1.98.06,2.81,0,.26-.07.39-.21.39-.1,0-.17-.09-.21-.28-.16-.9-.5-1.55-1.01-1.95-.51-.4-1.63-.6-3.35-.6-.02.56-.03,1.46-.03,2.7,0,1.61.06,2.64.17,3.07s.39.78.83,1.04c.44.26,1.17.38,2.21.38,2.97,0,4.89-1.02,5.76-3.07.11-.25.22-.38.33-.38.12,0,.18.08.18.25,0,.09-.02.19-.06.3-.05.15-.16.69-.33,1.63-.04.2-.18.79-.44,1.79h-4.8c-.69-.01-1.7-.04-3.03-.1-1.33-.06-2.51-.09-3.54-.09-1.03,0-1.56-.02-1.61-.06s-.07-.08-.07-.13c0-.15.13-.23.38-.23.85,0,1.41-.23,1.67-.68.27-.45.4-1.55.4-3.29v-2.35s.02-2.2.02-2.2c0-.44-.02-1.28-.07-2.51-.05-1.23-.1-1.94-.14-2.11-.04-.18-.16-.35-.36-.52-.19-.17-.62-.35-1.29-.52-.2-.05-.3-.14-.3-.25,0-.14.13-.21.4-.21l2.34.13c.82.04,2.85.06,6.08.06,2.12,0,3.21,0,3.25.01Z"/>
    <path class="st6" d="M109.48,20.2c1.06.46,1.8.94,2.21,1.44.41.5.72,1.28.92,2.32.26,1.38.61,2.3,1.07,2.77.46.47,1.05.73,1.79.76.21.01.31.09.31.22s-.12.2-.36.2c-2.14,0-3.44-.07-3.89-.21-.45-.14-.79-.92-1.01-2.34-.21-1.38-.42-2.39-.65-3.03-.23-.64-.58-1.13-1.08-1.47-.49-.34-1.26-.51-2.31-.51-.4,0-.85.04-1.35.13-.04.48-.06.98-.06,1.5,0,1.96.03,3.23.08,3.8.05.58.22,1,.49,1.26.27.26.72.4,1.36.42.27,0,.41.07.41.2,0,.15-.17.22-.5.22h-5.67c-.33,0-.49-.07-.49-.22,0-.13.13-.2.39-.2.58,0,.98-.09,1.21-.26.23-.18.4-.45.53-.82.13-.37.19-1.04.19-2.01l-.02-2.34v-3.56c.01-1.82-.03-3.02-.11-3.61-.08-.59-.22-.98-.43-1.18s-.68-.36-1.43-.48c-.16-.02-.24-.09-.24-.19,0-.12.16-.18.48-.18l6.78-.15c1.87,0,3.23.36,4.07,1.08.84.72,1.27,1.6,1.27,2.63,0,.66-.17,1.26-.51,1.8-.34.54-.74.94-1.21,1.18-.47.24-1.21.52-2.25.84ZM105.14,19.91c1.47-.03,2.57-.13,3.3-.31.73-.18,1.36-.56,1.87-1.16.52-.6.77-1.3.77-2.12,0-.86-.29-1.62-.86-2.26-.57-.64-1.49-.96-2.75-.96-.69,0-1.45.09-2.28.27-.09,2.1-.14,3.77-.14,5.02,0,.43.03.93.08,1.51Z"/>
    <path class="st6" d="M120.05,12.97c.46.62,1.25,1.58,2.38,2.88l3.67,4.25,3.53,4.08c.08-1.38.11-3.18.11-5.39,0-1.66-.03-2.77-.1-3.33-.07-.56-.32-1.03-.76-1.42-.44-.38-.99-.57-1.64-.57-.31,0-.46-.06-.46-.19,0-.08.03-.13.1-.17.07-.03.58-.07,1.54-.1.96-.03,1.77-.05,2.43-.05h1.55s.25.01.25.01c.24,0,.35.07.35.2,0,.12-.1.19-.31.21-.77.08-1.33.28-1.67.6-.34.32-.54.77-.61,1.37-.06.6-.1,2.6-.1,6.02l-.11,6.05c0,.31-.08.46-.23.46-.04,0-.09-.02-.16-.05-.07-.03-.41-.42-1.03-1.16-.62-.74-1.38-1.62-2.29-2.65-.91-1.03-1.62-1.87-2.14-2.51-1.14-1.38-1.86-2.23-2.15-2.55-1.11-1.18-1.76-1.93-1.96-2.27-.13-.23-.25-.34-.35-.34-.08,0-.13.15-.13.45l.02,1.78c0,2.25.06,4.05.18,5.4.12,1.34.25,2.13.38,2.37.13.23.37.47.7.7.33.24.69.36,1.06.36.5,0,.76.09.76.28,0,.14-.14.21-.42.21h-5.51c-.26-.01-.39-.08-.39-.21,0-.15.13-.23.38-.23.94,0,1.57-.21,1.88-.62.31-.42.47-1.3.47-2.65l-.09-4.02c0-2.38-.06-3.78-.19-4.2-.13-.42-.42-.94-.88-1.55-.45-.61-.97-.95-1.55-1.03-.26-.03-.39-.1-.39-.21,0-.14.17-.22.5-.22l3.37.02Z"/>
    <path class="st6" d="M146.53,13.02c.22.86.44,2.05.65,3.6-.04.06-.08.09-.12.09-.05,0-.11-.03-.17-.09-.53-.85-1.03-1.49-1.51-1.94-.48-.44-.97-.76-1.45-.95-.49-.19-1.32-.28-2.51-.28-1.12,0-2,.06-2.65.19-.06.08-.09.22-.09.42,0,.05,0,.15-.02.29-.08.61-.11,2.26-.11,4.96,0,.11,0,.27.02.48.58.02.98.03,1.19.03.96,0,1.66-.14,2.09-.43.43-.29.81-.91,1.13-1.86.05-.16.13-.24.23-.24.14,0,.22.11.22.33l-.05.46c-.06.6-.09,1.23-.09,1.87,0,1.04.02,1.98.06,2.81,0,.26-.07.39-.21.39-.1,0-.17-.09-.21-.28-.16-.9-.5-1.55-1.01-1.95-.51-.4-1.63-.6-3.35-.6-.02.56-.03,1.46-.03,2.7,0,1.61.06,2.64.17,3.07.11.44.39.78.83,1.04.44.26,1.17.38,2.21.38,2.97,0,4.89-1.02,5.76-3.07.11-.25.21-.38.33-.38.12,0,.18.08.18.25,0,.09-.02.19-.06.3-.05.15-.16.69-.33,1.63-.04.2-.18.79-.44,1.79h-4.8c-.69-.01-1.7-.04-3.03-.1-1.33-.06-2.51-.09-3.54-.09-1.03,0-1.56-.02-1.61-.06-.05-.04-.07-.08-.07-.13,0-.15.13-.23.38-.23.85,0,1.41-.23,1.67-.68.27-.45.4-1.55.4-3.29v-2.35s.02-2.2.02-2.2c0-.44-.02-1.28-.07-2.51-.05-1.23-.1-1.94-.14-2.11-.04-.18-.16-.35-.36-.52-.19-.17-.62-.35-1.29-.52-.2-.05-.3-.14-.3-.25,0-.14.13-.21.4-.21l2.34.13c.82.04,2.85.06,6.08.06,2.12,0,3.21,0,3.25.01Z"/>
    <path class="st6" d="M157.95,13.7c.21-.21.34-.42.41-.64.06-.18.15-.27.26-.27.06,0,.13.04.21.11.05.28.13.83.23,1.66l.28,2.15c0,.14-.08.21-.25.21-.09,0-.17-.08-.24-.23-.4-1-1-1.83-1.8-2.5-.79-.66-1.66-.99-2.6-.99s-1.62.28-2.09.84c-.47.56-.7,1.15-.7,1.78,0,.76.26,1.35.77,1.75.51.4,1.57.86,3.16,1.37,1.18.37,2.06.72,2.64,1.07s1.08.82,1.47,1.44c.4.62.6,1.28.6,1.99,0,1.21-.5,2.29-1.5,3.24-1,.96-2.23,1.43-3.68,1.43-1.31,0-2.62-.41-3.94-1.23-.26.21-.43.47-.5.76-.06.24-.16.37-.3.37-.12,0-.21-.16-.26-.47-.05-.31-.16-1.79-.33-4.45.03-.09.11-.14.24-.14.11,0,.21.08.28.25,1.18,2.96,2.82,4.43,4.93,4.43,1.05,0,1.87-.32,2.46-.95.59-.63.89-1.35.89-2.17,0-.57-.16-1.08-.48-1.56-.32-.47-.74-.86-1.26-1.15-.52-.29-1.35-.61-2.48-.97-1.45-.47-2.44-.91-2.96-1.32-.52-.42-.91-.89-1.15-1.41-.24-.52-.37-1.03-.37-1.52,0-1.02.46-1.92,1.38-2.7s2.05-1.18,3.39-1.18c.5,0,1.03.08,1.59.24.55.16,1.13.4,1.74.73Z"/>
    <path class="st6" d="M168.25,13.52c-.6-.03-1.02-.05-1.26-.05-1.65,0-2.85.35-3.59,1.04s-1.17,1.3-1.3,1.84c-.04.19-.14.29-.31.29-.08,0-.15-.04-.22-.11.04-.91.19-2.14.45-3.68.37,0,.6-.01.7-.01.6,0,1.39.03,2.39.09,1.08.06,2.73.09,4.95.09s3.76-.03,4.45-.08c.63-.06,1.49-.09,2.58-.09.09.55.15,1.12.18,1.72.05.68.09,1.16.14,1.43,0,.06.01.13.01.19,0,.18-.08.27-.24.27-.1,0-.18-.03-.24-.1s-.21-.28-.44-.65c-.4-.62-.81-1.09-1.24-1.4s-.91-.52-1.43-.61c-.53-.09-1.59-.15-3.2-.18-.09,1.15-.14,2.47-.14,3.95,0,4.9.1,7.79.32,8.67.21.88.96,1.32,2.25,1.32.31,0,.47.06.47.19,0,.15-.15.23-.45.23h-7.05c-.18,0-.28-.07-.28-.22s.18-.22.54-.22c.6,0,1.09-.17,1.46-.51.37-.34.58-.8.64-1.38.06-.58.09-2.26.09-5.03,0-2.37-.08-4.71-.24-7.01Z"/>
  </g>
  <g>
    <path class="st0" d="M120.22,7.14l-1.78-2.77h-1.39v2.77h-.87V.16h2.8c1.28,0,2.19.82,2.19,2.1s-.86,1.95-1.81,2.03l1.88,2.85h-1.03ZM118.88.94h-1.83v2.67h1.83c.83,0,1.39-.55,1.39-1.34s-.56-1.33-1.39-1.33Z"/>
    <path class="st0" d="M122.54,7.14V.16h4.57v.77h-3.7v2.25h3.63v.77h-3.63v2.41h3.7v.77h-4.57Z"/>
    <path class="st0" d="M133.51,7.14l-.62-1.55h-3.54l-.62,1.55h-.96l2.8-6.98h1.08l2.81,6.98h-.96ZM131.12.94l-1.52,3.88h3.02l-1.51-3.88Z"/>
    <path class="st0" d="M135.38,7.14V.16h.87v6.2h3.24v.77h-4.11Z"/>
    <path class="st0" d="M143.42,7.14V.16h4.57v.77h-3.7v2.25h3.63v.77h-3.63v2.41h3.7v.77h-4.57Z"/>
    <path class="st0" d="M149.47,5.5c.46.51,1.21.99,2.2.99,1.25,0,1.64-.67,1.64-1.2,0-.84-.85-1.07-1.77-1.32-1.12-.29-2.36-.61-2.36-1.98,0-1.15,1.03-1.94,2.4-1.94,1.07,0,1.89.36,2.48.97l-.52.64c-.52-.58-1.26-.84-2.02-.84-.84,0-1.43.45-1.43,1.11,0,.7.81.91,1.7,1.15,1.14.3,2.44.66,2.44,2.12,0,1.02-.69,2.05-2.57,2.05-1.21,0-2.1-.46-2.68-1.11l.51-.66Z"/>
    <path class="st0" d="M157.17,7.14V.94h-2.21V.16h5.29v.77h-2.22v6.2h-.87Z"/>
    <path class="st0" d="M165.72,7.14l-.62-1.55h-3.54l-.62,1.55h-.96l2.8-6.98h1.08l2.81,6.98h-.96ZM163.34.94l-1.52,3.88h3.02l-1.51-3.88Z"/>
    <path class="st0" d="M168.62,7.14V.94h-2.21V.16h5.29v.77h-2.22v6.2h-.87Z"/>
    <path class="st0" d="M172.86,7.14V.16h4.57v.77h-3.7v2.25h3.63v.77h-3.63v2.41h3.7v.77h-4.57Z"/>
  </g>
  <g>
    <path class="st5" d="M37.94,18.1v9.97L19.98,4.14l-.2-.23-.39-.55c-.58-.76-1.17-1.45-1.79-2.07-.62-.62-1.29-.92-2.03-.92V0h8.78l13.59,18.1Z"/>
    <path class="st2" d="M0,0h10.13v28.14H0v-.36c.5,0,1-.11,1.5-.33.5-.22.95-.53,1.36-.93.41-.39.73-.85.98-1.38.25-.53.37-1.09.37-1.69V4.69c0-.6-.13-1.17-.37-1.69s-.58-.99-.98-1.38c-.41-.39-.86-.7-1.36-.93S.5.35,0,.35v-.35Z"/>
    <path class="st1" d="M18.36,17.62c0-.5-.11-1-.34-1.5-.22-.5-.53-.95-.93-1.36-.39-.41-.85-.73-1.38-.99-.53-.25-1.1-.37-1.73-.37v-.32c.63,0,1.21-.12,1.73-.37.53-.25.99-.58,1.38-.99.39-.41.7-.87.93-1.38s.34-1.02.34-1.52h.32v8.79h-.32Z"/>
    <path class="st3" d="M15.57,27.78c.81,0,1.67-.2,2.58-.59.91-.39,1.74-.89,2.5-1.5.76-.6,1.43-1.28,1.99-2.03.56-.75.93-1.48,1.08-2.19h.36v6.66h-8.51v-.36Z"/>
    <path class="st4" d="M33.36,0h8.79v.35c-.5,0-1,.11-1.5.34s-.95.53-1.36.93c-.41.39-.74.85-.99,1.38s-.37,1.09-.37,1.69h-.36c0-.6-.12-1.17-.37-1.69s-.58-.99-.99-1.38c-.41-.39-.86-.7-1.36-.93-.5-.22-1-.34-1.5-.34v-.35Z"/>
  </g>
</svg>